HIERARCHY
ROOT hip
{
  OFFSET 0 0 0
  CHANNELS 6 Xposition Yposition Zposition Zrotation Yrotation Xrotation
  JOINT abdomen
  {
    OFFSET 0 20.6881 -0.73152
    CHANNELS 3 Zrotation Xrotation Yrotation
    JOINT chest
    {
      OFFSET 0 11.7043 -0.48768
      CHANNELS 3 Zrotation Xrotation Yrotation
      JOINT neck
      {
        OFFSET 0 22.1894 -2.19456
        CHANNELS 3 Zrotation Xrotation Yrotation
        JOINT head
        {
          OFFSET -0.24384 7.07133 1.2192
          CHANNELS 3 Zrotation Xrotation Yrotation
          JOINT leftEye
          {
            OFFSET 4.14528 8.04674 8.04672
            CHANNELS 3 Zrotation Xrotation Yrotation
            End Site
            {
              OFFSET 1 0 0
            }
          }
          JOINT rightEye
          {
            OFFSET -3.6576 8.04674 8.04672
            CHANNELS 3 Zrotation Xrotation Yrotation
            End Site
            {
              OFFSET 1 0 0
            }
          }
        }
      }
      JOINT rCollar
      {
        OFFSET -2.68224 19.2634 -4.8768
        CHANNELS 3 Zrotation Xrotation Yrotation
        JOINT rShldr
        {
          OFFSET -8.77824 -1.95073 1.46304
          CHANNELS 3 Zrotation Xrotation Yrotation
          JOINT rForeArm
          {
            OFFSET -28.1742 -1.7115 0.48768
            CHANNELS 3 Zrotation Xrotation Yrotation
            JOINT rHand
            {
              OFFSET -22.5879 0.773209 7.07136
              CHANNELS 3 Zrotation Xrotation Yrotation
              JOINT rThumb1
              {
                OFFSET -1.2192 -0.487915 3.41376
                CHANNELS 3 Zrotation Xrotation Yrotation
                JOINT rThumb2
                {
                  OFFSET -3.37035 -0.52449 3.41376
                  CHANNELS 3 Zrotation Xrotation Yrotation
                  End Site
                  {
                    OFFSET -1.78271 -1.18214 1.43049
                  }
                }
              }
              JOINT rIndex1
              {
                OFFSET -7.75947 0.938293 5.60832
                CHANNELS 3 Zrotation Xrotation Yrotation
                JOINT rIndex2
                {
                  OFFSET -2.54057 -0.884171 1.56538
                  CHANNELS 3 Zrotation Xrotation Yrotation
                  End Site
                  {
                    OFFSET -1.62519 -0.234802 1.16502
                  }
                }
              }
              JOINT rMid1
              {
                OFFSET -8.24714 1.18213 3.41376
                CHANNELS 3 Zrotation Xrotation Yrotation
                JOINT rMid2
                {
                  OFFSET -3.10165 -0.590103 1.0647
                  CHANNELS 3 Zrotation Xrotation Yrotation
                  End Site
                  {
                    OFFSET -2.48547 -0.328903 0.83742
                  }
                }
              }
              JOINT rRing1
              {
                OFFSET -8.82822 0.546677 1.51678
                CHANNELS 3 Zrotation Xrotation Yrotation
                JOINT rRing2
                {
                  OFFSET -2.60934 -0.819778 -0.0198488
                  CHANNELS 3 Zrotation Xrotation Yrotation
                  End Site
                  {
                    OFFSET -2.33842 -0.294052 0.168128
                  }
                }
              }
              JOINT rPinky1
              {
                OFFSET -8.27202 -0.0477905 -0.4584
                CHANNELS 3 Zrotation Xrotation Yrotation
                JOINT rPinky2
                {
                  OFFSET -1.82734 -0.647385 -0.700984
                  CHANNELS 3 Zrotation Xrotation Yrotation
                  End Site
                  {
                    OFFSET -1.69225 -0.51767 -0.607171
                  }
                }
              }
            }
          }
        }
      }
      JOINT lCollar
      {
        OFFSET 2.68224 19.2634 -4.8768
        CHANNELS 3 Zrotation Xrotation Yrotation
        JOINT lShldr
        {
          OFFSET 8.77824 -1.95073 1.46304
          CHANNELS 3 Zrotation Xrotation Yrotation
          JOINT lForeArm
          {
            OFFSET 28.1742 -1.7115 0.48768
            CHANNELS 3 Zrotation Xrotation Yrotation
            JOINT lHand
            {
              OFFSET 22.5879 0.773209 7.07136
              CHANNELS 3 Zrotation Xrotation Yrotation
              JOINT lThumb1
              {
                OFFSET 1.2192 -0.487915 3.41376
                CHANNELS 3 Zrotation Xrotation Yrotation
                JOINT lThumb2
                {
                  OFFSET 3.37035 -0.52449 3.41376
                  CHANNELS 3 Zrotation Xrotation Yrotation
                  End Site
                  {
                    OFFSET 1.78271 -1.18214 1.43049
                  }
                }
              }
              JOINT lIndex1
              {
                OFFSET 7.75947 0.938293 5.60832
                CHANNELS 3 Zrotation Xrotation Yrotation
                JOINT lIndex2
                {
                  OFFSET 2.54057 -0.884171 1.56538
                  CHANNELS 3 Zrotation Xrotation Yrotation
                  End Site
                  {
                    OFFSET 1.62519 -0.234802 1.16502
                  }
                }
              }
              JOINT lMid1
              {
                OFFSET 8.24714 1.18213 3.41376
                CHANNELS 3 Zrotation Xrotation Yrotation
                JOINT lMid2
                {
                  OFFSET 3.10165 -0.590103 1.0647
                  CHANNELS 3 Zrotation Xrotation Yrotation
                  End Site
                  {
                    OFFSET 2.48547 -0.328903 0.83742
                  }
                }
              }
              JOINT lRing1
              {
                OFFSET 8.82822 0.546677 1.51678
                CHANNELS 3 Zrotation Xrotation Yrotation
                JOINT lRing2
                {
                  OFFSET 2.60934 -0.819778 -0.0198488
                  CHANNELS 3 Zrotation Xrotation Yrotation
                  End Site
                  {
                    OFFSET 2.33842 -0.294052 0.168128
                  }
                }
              }
              JOINT lPinky1
              {
                OFFSET 8.27202 -0.0477905 -0.4584
                CHANNELS 3 Zrotation Xrotation Yrotation
                JOINT lPinky2
                {
                  OFFSET 1.82734 -0.647385 -0.700984
                  CHANNELS 3 Zrotation Xrotation Yrotation
                  End Site
                  {
                    OFFSET 1.69225 -0.51767 -0.607171
                  }
                }
              }
            }
          }
        }
      }
    }
  }
  JOINT rButtock
  {
    OFFSET -8.77824 4.35084 1.2192
    CHANNELS 3 Zrotation Xrotation Yrotation
    JOINT rThigh
    {
      OFFSET 0 -1.70687 -2.19456
      CHANNELS 3 Zrotation Xrotation Yrotation
      JOINT rShin
      {
        OFFSET 0 -36.8199 0.73152
        CHANNELS 3 Zrotation Xrotation Yrotation
        JOINT rFoot
        {
          OFFSET 0.73152 -45.1104 -5.12064
          CHANNELS 3 Zrotation Xrotation Yrotation
          End Site
          {
            OFFSET -1.1221 -3.69964 12.103
          }
        }
      }
    }
  }
  JOINT lButtock
  {
    OFFSET 8.77824 4.35084 1.2192
    CHANNELS 3 Zrotation Xrotation Yrotation
    JOINT lThigh
    {
      OFFSET 0 -1.70687 -2.19456
      CHANNELS 3 Zrotation Xrotation Yrotation
      JOINT lShin
      {
        OFFSET 0 -36.8199 0.73152
        CHANNELS 3 Zrotation Xrotation Yrotation
        JOINT lFoot
        {
          OFFSET -0.73152 -45.1104 -5.12064
          CHANNELS 3 Zrotation Xrotation Yrotation
          End Site
          {
            OFFSET 1.1221 -3.69964 12.103
          }
        }
      }
    }
  }
}
MOTION
Frames:	7
Frame Time:	0.03333
0.0 0.0 0.0 0.0 0.0 0.0 0.0 0.0 0.0 0.0 0.0 0.0 0.0 0.0 0.0 0.0 0.0 0.0 0.0 0.0 0.0 0.0 0.0 0.0 0.0 0.0 0.0 0.0 0.0 0.0 0.0 0.0 0.0 0.0 0.0 0.0 0.0 0.0 0.0 0.0 0.0 0.0 0.0 0.0 0.0 0.0 0.0 0.0 0.0 0.0 0.0 0.0 0.0 0.0 0.0 0.0 0.0 0.0 0.0 0.0 0.0 0.0 0.0 0.0 0.0 0.0 0.0 0.0 0.0 0.0 0.0 0.0 0.0 0.0 0.0 0.0 0.0 0.0 0.0 0.0 0.0 0.0 0.0 0.0 0.0 0.0 0.0 0.0 0.0 0.0 0.0 0.0 0.0 0.0 0.0 0.0 0.0 0.0 0.0 0.0 0.0 0.0 0.0 0.0 0.0 0.0 0.0 0.0 0.0 0.0 0.0 0.0 0.0 0.0 0.0 0.0 0.0 0.0 0.0 0.0 0.0 0.0 0.0 0.0 0.0 0.0 0.0 0.0 0.0 0.0 0.0 0.0
-0.0508 65.3598 0.0276 178.431219 -43.235807 -177.857148 -3.669 10.363349 -131.472226 0.675657 9.417896 112.320033 -14.349811 28.477071 -52.228725 36.499275 -8.30269 -1.519095 -0.00128 -0.0 0.004028 -0.001228 0.0 -0.000602 -44.040954 64.186653 46.711066 54.021546 -6.181222 56.009138 -37.530921 -8.192313 26.772057 7.134946 -22.589678 1.8551 -178.928293 -16.453366 89.4219 5.214657 -60.972708 6.521881 -92.854602 40.402759 78.134473 -179.347061 -34.082329 112.466109 -153.321106 13.629147 138.862766 10.046794 -20.320812 -1.155863 0.003726 1.68764 0.529473 10.150198 0.615048 0.011216 -152.201989 37.329433 -147.583596 -112.668849 -42.404146 -110.628474 9.652251 34.836117 -11.19931 52.849896 37.136572 -122.1642 89.652439 -53.360804 86.227068 -10.646041 -15.957875 -6.861543 -83.254353 -50.257084 -33.61606 136.538959 17.859891 -101.096877 46.208 39.653433 -36.317922 170.221337 -19.905212 -111.812991 -173.120546 -66.297537 -137.610622 -11.318245 -24.937248 1.252617 145.121438 1.974243 179.749262 152.566245 -24.852167 175.379713 75.779597 -51.666408 74.24947 -40.706953 79.900169 3.487345 179.98233 75.748398 0.01209 164.60106 23.814379 -145.701023 -6.882385 -57.626586 -176.707824 -24.368638 -18.83497 14.653535 0.00012 0.000374 -0.000155 25.701356 -18.203283 -122.985901 -64.831757 -44.062064 -126.073102 -32.242741 5.590625 -103.017757
-0.0838 65.3488 0.055400000000000005 178.531394 -43.335276 -177.883535 -3.210659 12.862764 -69.035493 10.770123 2.487135 49.822293 -14.872926 29.259422 -57.12247 37.907514 -5.402031 3.035588 0.000677 0.0 0.001926 0.000677 0.0 0.001926 -155.809455 -5.555285 162.267178 -117.385989 75.884754 72.201281 -162.166743 -82.296648 114.569141 167.255291 -26.968382 142.015889 2.435573 -2.419057 -0.323956 -128.262468 -22.088276 114.653015 -150.887092 -16.291108 120.978412 -171.562141 -34.877335 117.727624 -160.098386 -4.901449 142.967719 -7.49118 26.11228 6.45006 -0.013476 -1.32313 -0.416049 7.019802 29.716006 4.673651 -157.331981 57.246351 -150.510687 -25.991123 -40.243521 -26.454826 130.41928 54.548688 -134.286781 -61.347925 -31.464011 -98.748021 135.69432 75.513463 -77.741295 -144.71402 -49.063543 -129.979402 85.830128 38.630874 -47.954863 127.523829 -19.338538 -78.610038 138.095375 5.495018 -114.614741 73.428395 57.019296 -54.1876 36.03668 51.723048 -29.832138 163.833618 -7.021769 -143.477481 132.482931 54.10295 -155.533543 -5.914152 48.849989 0.064306 26.565788 -38.860341 25.606366 151.218168 27.620598 146.598516 179.973991 75.749641 0.0214 164.518927 23.787921 -145.523893 6.439096 -64.141655 104.84199 109.124209 81.362842 -8.055447 179.973074 75.749648 0.018423 -140.699406 48.980042 -139.006633 -64.533964 -32.248832 -6.08269 142.191548 -30.275727 -160.17044
-0.0936 65.3394 0.0756 178.419132 -43.41826 -177.806523 -3.217432 12.899376 -69.662367 10.686421 2.623528 50.531758 -11.76677 25.177251 -30.152527 27.253525 -20.192286 -21.592117 0.002293 0.0 0.002558 0.002489 -0.0 -0.000724 -59.836627 -86.720632 -81.637776 -176.970427 4.294262 -135.121173 11.526753 -77.010804 53.19878 -8.334883 23.604571 0.722918 -38.895699 29.387198 16.068267 27.709229 -25.203728 6.849404 -8.572711 12.508853 5.448932 104.456268 -61.880404 51.21471 173.121063 -66.297504 137.612377 -163.409748 -4.597369 143.050568 -145.120139 0.226218 -179.200338 -73.706973 -78.003059 -95.208397 -104.234722 -44.890658 -102.395022 3.360328 0.047865 -1.256459 149.905027 22.421464 -154.97454 22.177883 -52.757305 -42.606325 172.824802 -50.625682 149.542625 6.594313 36.918063 -3.221868 -81.276186 -49.996305 -32.239866 20.111711 -19.840058 21.581185 -73.420058 -73.571243 -26.564472 55.592381 53.277535 -45.687562 22.287795 41.333734 -17.257424 83.163977 64.290848 -75.2812 0.00031 0.063815 -0.019796 154.307043 -64.498128 178.428691 146.184769 15.332836 142.710331 -73.21949 84.121597 35.16468 0.0 6e-05 -0.000341 -24.032648 -47.995257 91.333686 63.320619 -3.414541 8.87423 -88.651774 58.826791 1.941488 179.998656 75.749582 0.001387 -140.687581 50.560255 -46.676087 -32.955303 58.215495 101.30317 -60.376331 10.029454 -32.002942
-0.0963 65.3237 0.10070000000000001 178.432961 -43.47613 -177.783385 -5.562224 14.458287 1.167792 8.402081 -10.650611 -18.603658 -13.145843 26.433902 -39.776093 31.905422 -15.499803 -11.752602 0.000582 0.0 0.000432 0.000582 0.0 0.000432 -155.417071 -2.951261 161.719108 -56.163252 32.081345 15.439851 179.392905 40.147281 -132.652688 -9.491706 26.279184 1.076165 1.841651 -1.827484 -0.253629 -123.333755 -13.810686 110.959472 10.746235 -19.048154 -4.726218 124.013453 -61.980927 64.418365 23.903998 -61.33381 1.398151 2.218974 2.414487 0.428754 -145.119295 0.226587 -179.199695 9.094095 -11.263779 -10.530674 -112.147235 -40.451287 -110.188603 -21.591817 -38.424042 -23.788208 -4.239754 -44.742756 8.647346 113.646248 6.48238 145.429285 27.863526 -16.501695 60.519829 -88.004986 -65.853741 -76.520564 -83.254144 -50.257791 -33.615929 21.117494 -18.32098 20.791483 148.886322 -12.609991 -120.244198 -175.676566 -50.752149 -111.339014 147.861961 25.094695 -134.772074 171.06501 -28.331312 -143.849548 145.120119 0.267352 179.213315 151.060045 -32.038715 173.807278 -1.480617 4.003965 -1.36053 -1.321765 -2.949248 0.92177 179.996766 75.750215 0.003337 164.44915 23.717691 -145.32283 5.439296 -66.856891 80.865802 -178.881091 18.671003 -112.441051 -179.992263 75.748471 -0.005294 -140.874871 48.830795 -139.260228 -68.083868 -31.986829 -34.554526 -0.229692 39.348588 151.561337
-0.0996 65.2967 0.1308 178.454819 -43.524975 -177.732856 -3.707551 10.488962 -132.258433 0.391518 9.291859 113.719335 -14.298776 37.636951 -107.678339 39.512059 25.703889 44.345004 -0.002599 0.0 -0.003547 -0.002643 -0.0 0.001214 0.070826 -0.427903 -0.094054 64.116272 14.441334 -0.928952 172.427421 2.553546 99.046254 173.434203 -11.173052 144.211068 -173.770752 -11.43978 89.892434 -159.231593 0.515351 84.382283 -148.886584 -12.609471 120.245155 177.729375 -48.658591 112.614296 -0.570839 1.648426 0.32178 4.277401 -3.127594 -0.413626 -145.119568 0.267851 -179.212254 -74.519962 -77.999761 -96.02331 -124.850671 -29.037712 -122.620686 -161.197148 55.950724 -147.259374 85.537339 68.183072 -88.689005 103.910009 9.027282 -92.806002 -34.278761 -10.37327 48.468869 -171.215731 0.887121 -149.167497 -13.164805 -13.115417 0.521146 23.128654 21.175559 -12.81359 -37.216179 -57.917723 0.644447 48.573931 50.600225 -39.79508 168.109881 -30.287225 -145.336929 -2.577841 1.620824 -0.566952 0.001346 0.022674 -0.006955 55.587867 -86.723236 77.103343 146.186033 15.332537 142.71044 25.760916 -40.232358 27.02606 -179.958508 75.749208 -0.034139 163.58636 25.733135 6.988846 -47.073615 50.828443 -48.038926 69.118583 -40.063073 157.418448 -179.999726 75.748341 -0.000283 -141.141673 50.556535 -31.395212 -24.041761 57.44749 -15.59866 119.097067 45.792699 -22.100075
-0.0972 65.2705 0.1582 178.444915 -43.573538 -177.660526 -3.201991 12.961779 -70.591735 10.457132 2.821893 52.101252 3.077203 24.493283 48.775277 -26.497724 -17.057777 -111.157268 2.5e-05 0.0 0.00013 2.5e-05 0.0 0.00013 -147.866037 28.559836 152.68969 -86.503731 38.258532 56.186716 42.702769 -18.714892 -59.967329 -177.578952 16.52989 144.193198 -169.319995 -7.00069 89.922134 45.995297 -66.203393 36.379693 88.79155 -75.499901 40.048393 -82.36288 52.801089 69.049778 23.90201 -61.334162 1.3975 -34.640792 55.069091 29.088285 -70.379318 -72.130005 -87.280086 -58.194407 -82.330631 -84.099843 -36.270298 -44.664955 -35.161343 -174.251798 78.363024 -142.069849 85.537164 68.182493 -88.688993 89.420154 9.639243 -89.618453 -8.48209 -27.224665 60.36776 -156.871587 -34.165248 -140.185226 -6.464302 -6.452407 0.634537 87.627368 25.231052 -78.581092 46.208896 39.652446 -36.318622 178.995155 -31.823291 -109.643986 167.375246 -28.00855 -145.268805 1.467568 12.584163 -2.543228 145.10771 3.68177 -179.715533 -11.51632 26.413866 5.978769 128.961989 -23.656169 126.609046 -3.065496 0.150856 1.675615 179.995481 75.749872 0.003987 164.965035 24.741284 -79.109669 -61.891144 -24.102729 13.144525 168.493757 79.134086 -68.880507 179.985818 75.750739 0.009704 -140.963605 48.593585 -139.60667 -67.766086 -20.544085 -165.320476 -4.302408 -75.626794 -81.603505
